<?xml version="1.0" encoding="iso-8859-1"?>
<!-- Generator: Adobe Illustrator 18.0.0, SVG Export Plug-In . SVG Version: 6.00 Build 0)  -->
<!DOCTYPE svg PUBLIC "-//W3C//DTD SVG 1.1//EN" "http://www.w3.org/Graphics/SVG/1.1/DTD/svg11.dtd">
<svg xmlns="http://www.w3.org/2000/svg" xmlns:xlink="http://www.w3.org/1999/xlink" version="1.1" id="Capa_1" x="0px" y="0px" viewBox="0 0 60 60" style="enable-background:new 0 0 60 60;" xml:space="preserve" width="512px" height="512px">
<path d="M59.206,0.293c-0.391-0.391-1.023-0.391-1.414,0L54.085,4H30.802L1.533,33.511c-1.376,1.376-1.376,3.614,0,4.99  l20.466,20.466C22.664,59.633,23.551,60,24.494,60s1.829-0.367,2.505-1.043l28.501-29.271V5.414l3.707-3.707  C59.597,1.316,59.597,0.684,59.206,0.293z M32.635,30.993c0.391-0.391,1.023-0.391,1.414,0s0.391,1.023,0,1.414l-7.071,7.071  c-0.195,0.195-0.451,0.293-0.707,0.293s-0.512-0.098-0.707-0.293c-0.391-0.391-0.391-1.023,0-1.414L32.635,30.993z M22.74,21.09  c0.359-0.37,1.04-0.37,1.409,0c0.181,0.18,0.29,0.44,0.29,0.71c0,0.26-0.109,0.52-0.29,0.71c-0.189,0.18-0.439,0.29-0.71,0.29  c-0.26,0-0.52-0.11-0.71-0.29c-0.18-0.19-0.29-0.45-0.29-0.71C22.439,21.53,22.549,21.28,22.74,21.09z M9.3,36.942  c-0.256,0-0.512-0.098-0.707-0.293c-0.391-0.391-0.391-1.023,0-1.414L19.2,24.629c0.391-0.391,1.023-0.391,1.414,0  s0.391,1.023,0,1.414L10.007,36.649C9.812,36.845,9.556,36.942,9.3,36.942z M15.669,40.89c-0.19,0.19-0.45,0.3-0.71,0.3  c-0.271,0-0.521-0.109-0.71-0.3c-0.19-0.18-0.29-0.439-0.29-0.7c0-0.27,0.1-0.529,0.29-0.71c0.37-0.37,1.04-0.37,1.41,0  c0.189,0.19,0.3,0.44,0.3,0.71C15.959,40.45,15.849,40.7,15.669,40.89z M21.321,45.135l-1.414,1.415  c-0.195,0.195-0.451,0.293-0.707,0.293s-0.512-0.098-0.707-0.293c-0.391-0.39-0.391-1.023,0-1.414l1.414-1.415  c0.391-0.391,1.023-0.391,1.414,0C21.711,44.11,21.711,44.744,21.321,45.135z M18.493,38.064c-0.195,0.195-0.451,0.293-0.707,0.293  s-0.512-0.098-0.707-0.293c-0.391-0.391-0.391-1.023,0-1.414l10.606-10.607c0.391-0.391,1.023-0.391,1.414,0s0.391,1.023,0,1.414  L18.493,38.064z M22.439,41.6c0-0.26,0.11-0.52,0.29-0.71c0.37-0.37,1.051-0.37,1.42,0c0.19,0.19,0.29,0.45,0.29,0.71  s-0.1,0.521-0.29,0.71c-0.189,0.181-0.439,0.29-0.71,0.29c-0.26,0-0.52-0.109-0.71-0.29C22.549,42.12,22.439,41.859,22.439,41.6z   M35.463,40.893L24.856,51.499c-0.195,0.195-0.451,0.293-0.707,0.293s-0.512-0.098-0.707-0.293c-0.391-0.391-0.391-1.023,0-1.414  l10.607-10.606c0.391-0.391,1.023-0.391,1.414,0S35.854,40.502,35.463,40.893z M38.999,37.359c-0.181,0.181-0.44,0.29-0.71,0.29  c-0.26,0-0.521-0.109-0.71-0.29c-0.181-0.189-0.29-0.449-0.29-0.71c0-0.26,0.109-0.52,0.29-0.71c0.37-0.37,1.06-0.37,1.42,0  c0.18,0.181,0.29,0.44,0.29,0.71C39.289,36.92,39.179,37.17,38.999,37.359z M44.499,20c-2.757,0-5-2.243-5-5s2.243-5,5-5  s5,2.243,5,5S47.256,20,44.499,20z" fill="#1ab5ba"/>
<g>
</g>
<g>
</g>
<g>
</g>
<g>
</g>
<g>
</g>
<g>
</g>
<g>
</g>
<g>
</g>
<g>
</g>
<g>
</g>
<g>
</g>
<g>
</g>
<g>
</g>
<g>
</g>
<g>
</g>
</svg>
